<svg xmlns="http://www.w3.org/2000/svg" viewBox="0 0 296.549 296.549"><path d="M284.855 237.167l-12.871 3.219-18.938-41.662-5.919-53.276 8.762 1.252a12.164 12.164 0 0013.266-8.2 12.138 12.138 0 00-1.195-10.248 12.133 12.133 0 00-8.629-5.648l-10.933-1.562V23.81c0-13.129-10.681-23.81-23.81-23.81h-200C11.46 0 .779 10.681.779 23.81c0 11.495 8.195 21.114 19.048 23.329v248.1h190.286l.376 1.31 9.157-2.619-8.171-28.6 2.667-.667 61.852-15.462 2.614-.652 8.129 24.39 9.033-3.014-10.915-32.758zm-36.738-106.543l9.871 1.41a2.587 2.587 0 011.872 1.223c.243.395.6 1.21.262 2.229-.405 1.214-1.643 1.929-2.881 1.786l-10.01-1.429.886-5.219zM224.588 9.523c7.876 0 14.286 6.41 14.286 14.287v84.962l-9.524-5.557v-65.12h-4.762c-7.876 0-14.286-6.41-14.286-14.286 0-7.876 6.41-14.286 14.286-14.286zM175.94 125.657l-22.933-3.276-2.105-4.205a16.13 16.13 0 00-.895-1.567l22.605 3.229v.005l62.452 8.91 3.619.519-.886 5.219-14.757-2.105-47.1-6.729zm9.377 16.405l-8.795 8.795-14.843-11.133-3.49-6.986 23.738 3.39 3.39 5.934zm-52.633-37.081l-15.333 5.114c-.743.105-1.495.186-2.229.314-.014-.295-.057-.586-.057-.886 0-10.167 3.576-19.51 9.514-26.867a42.563 42.563 0 018.457 17.544c-.014.048-.043.09-.052.138-.386 1.543-.424 3.1-.3 4.643zm-11.292 22.123l.738 5.924a42.138 42.138 0 01-5.781-13.176c.663-.128 1.344-.195 2.015-.295l3.176 3.176c-.229 1.438-.333 2.9-.148 4.371zm-3.575 16.011c-7.505 5.948-16.81 9.267-26.562 9.267-2.819 0-5.571-.29-8.238-.814a42.512 42.512 0 0124.257-28.858 51.714 51.714 0 0010.543 20.405zm-12.077-30.096c-15.757 6.01-27.605 19.286-31.819 35.662-15.014-6.671-25.524-21.7-25.524-39.157 0-23.629 19.229-42.857 42.857-42.857 9.924 0 19.171 3.448 26.533 9.262-7.632 9.1-12.247 20.814-12.247 33.595 0 1.176.124 2.333.2 3.495zM81.774 161c3.081.567 6.238.905 9.481.905 12.167 0 23.748-4.248 33.014-11.795l.562 4.486 33.538 33.524c-8.11 10.452-20.443 16.643-33.781 16.643-23.629 0-42.857-19.229-42.857-42.857 0-.306.038-.601.043-.906zm49.613-85.066c7.31-5.786 16.514-9.267 26.533-9.267 11.41 0 22.09 4.643 29.948 12.352l-5.666-3.305-40.181 14.61c-.614.224-1.152.581-1.724.881a52.11 52.11 0 00-8.91-15.271zm10.84 26.722c.395-1.586 1.514-2.814 3.062-3.376l35.986-13.086 53.132 30.996.21 1.881-23.671-3.381-32.371-4.624-3.871-6.786-20.129 3.357-12.062-1.724a4.86 4.86 0 01-.286-3.257zM10.302 23.81c0-7.876 6.41-14.286 14.286-14.286h181.076c-3.024 3.99-4.886 8.905-4.886 14.286s1.862 10.295 4.886 14.286H24.588c-7.876-.001-14.286-6.41-14.286-14.286zm189.305 234.671l7.786 27.233H29.35V47.619h190.476v50.043l-13.467-7.857c-7.99-19.595-27.21-32.662-48.438-32.662-12.652 0-24.267 4.51-33.333 12.005-9.129-7.538-20.8-12.005-33.333-12.005-28.881 0-52.381 23.5-52.381 52.381 0 22.219 13.933 41.205 33.5 48.805-.076 1.186-.167 2.371-.167 3.576 0 28.881 23.5 52.381 52.381 52.381 15.905 0 30.671-7.167 40.576-19.376l3.943 3.943 32.333 27.714 9.681 29.033-11.514 2.881zm42.624-10.658l-21.848 5.462-10.743-32.233-34.067-29.181-41.7-41.7-3.033-24.248c-.1-.81-.029-1.605.176-2.357l.224-.581a6.19 6.19 0 012.224-2.852c2.481-1.61 6.076-1.138 8.062 1.048.324.376.624.781.852 1.243l4.338 8.671 7.443 14.89 23.252 17.438 19.776-19.776-3.324-5.814 43.519 6.219 6.276 56.471 18.93 42.21-20.357 5.09z"/></svg>