<svg xmlns="http://www.w3.org/2000/svg" viewBox="0 0 384.97 384.97"><path d="M192.485 0C86.173 0 0 86.173 0 192.485c0 106.3 86.173 192.485 192.485 192.485 106.3 0 192.485-86.173 192.485-192.485S298.785 0 192.485 0zm0 360.909c-93.018 0-168.424-75.406-168.424-168.424S99.467 24.061 192.485 24.061s168.424 75.406 168.424 168.424-75.406 168.424-168.424 168.424z"/><path d="M273.437 255.897l-63.376-63.388 63.015-62.497a11.931 11.931 0 000-17.011c-4.74-4.692-12.439-4.692-17.179 0l-62.931 62.413-63.869-63.881c-4.74-4.764-12.439-4.764-17.179 0-4.74 4.752-4.74 12.475 0 17.227l63.773 63.785-64.134 63.604c-4.74 4.704-4.74 12.319 0 17.011 4.74 4.704 12.439 4.704 17.191 0l64.049-63.52 63.472 63.472c4.74 4.764 12.439 4.764 17.179 0 4.729-4.74 4.729-12.451-.011-17.215z"/></svg>